<svg id="TYPO" xmlns="http://www.w3.org/2000/svg" viewBox="0 0 64 64"><style>.st0{fill:#FFFFFF;} .st1{fill:#55241A;} .st2{fill:#F6861E;} .st3{fill:#E4741E;} .st4{fill:#84D0F0;} .st5{fill:#00AAE6;}</style><g id="XMLID_183_"><path id="XMLID_186_" class="st0" d="M39.4 28.4c-.6-2.2-2.6-3.7-5-3.7s-4.4 1.6-5 3.7h10z"/><path id="XMLID_185_" class="st0" d="M60.5 28.4c-.4-1.5-1.8-2.6-3.5-2.6-1.6 0-3 1.1-3.5 2.6h7z"/><path id="XMLID_184_" class="st0" d="M54.4 28.4c-1-3.4-4.1-5.8-7.8-5.8s-6.8 2.5-7.8 5.8h15.6z"/></g><g id="XMLID_143_"><g id="XMLID_145_"><path id="XMLID_182_" class="st1" d="M22.1 7.3h20.1v6.2H22.1z"/><path id="XMLID_181_" class="st0" d="M59.3 37.9H43.7c-.4 0-.7-.3-.7-.7 0-.4.3-.7.7-.7h15.6c.4 0 .7.3.7.7-.1.5-.4.7-.7.7z"/><path id="XMLID_180_" class="st2" d="M42.8 37.9H59v18.3H42.8z"/><path id="XMLID_179_" class="st2" d="M9.8 13.3h34.9v42.9H9.8z"/><g id="XMLID_175_"><path id="XMLID_178_" class="st0" d="M13.1 40h6.7v6.7h-6.7z"/><g id="XMLID_176_"><path id="XMLID_177_" class="st1" d="M13.9 41H19v4.8h-5.1z"/></g></g><g id="XMLID_171_"><path id="XMLID_174_" class="st0" d="M48.1 40h6.7v6.7h-6.7z"/><g id="XMLID_172_"><path id="XMLID_173_" class="st1" d="M48.9 41H54v4.8h-5.1z"/></g></g><g id="XMLID_167_"><path id="XMLID_170_" class="st0" d="M13.1 28.1h6.7v6.7h-6.7z"/><g id="XMLID_168_"><path id="XMLID_169_" class="st1" d="M13.9 29.1H19v4.8h-5.1z"/></g></g><g id="XMLID_163_"><path id="XMLID_166_" class="st0" d="M23.5 28.1h6.7v6.7h-6.7z"/><g id="XMLID_164_"><path id="XMLID_165_" class="st1" d="M24.3 29.1h5.1v4.8h-5.1z"/></g></g><g id="XMLID_159_"><path id="XMLID_162_" class="st0" d="M33.9 28.1h6.7v6.7h-6.7z"/><g id="XMLID_160_"><path id="XMLID_161_" class="st1" d="M34.7 29.1h5.1v4.8h-5.1z"/></g></g><g id="XMLID_155_"><path id="XMLID_158_" class="st0" d="M13.1 17.3h6.7V24h-6.7z"/><g id="XMLID_156_"><path id="XMLID_157_" class="st1" d="M13.9 18.3H19v4.8h-5.1z"/></g></g><path class="st3" d="M13.1 24h6.7v.8h-6.7zM23.5 24h6.7v.8h-6.7zM33.9 24h6.7v.8h-6.7zM13.1 34.8h6.7v.8h-6.7zM23.5 34.8h6.7v.8h-6.7zM33.9 34.8h6.7v.8h-6.7zM13.1 46.7h6.7v.8h-6.7zM48.1 46.7h6.7v.8h-6.7z"/><g id="XMLID_151_"><path id="XMLID_154_" class="st0" d="M23.5 17.3h6.7V24h-6.7z"/><g id="XMLID_152_"><path id="XMLID_153_" class="st1" d="M24.3 18.3h5.1v4.8h-5.1z"/></g></g><g id="XMLID_147_"><path id="XMLID_150_" class="st0" d="M33.9 17.3h6.7V24h-6.7z"/><g id="XMLID_148_"><path id="XMLID_149_" class="st1" d="M34.7 18.3h5.1v4.8h-5.1z"/></g></g><path id="XMLID_146_" class="st0" d="M45 13.4H9.5c-.4 0-.7-.3-.7-.7 0-.4.3-.7.7-.7H45c.4 0 .7.3.7.7-.1.4-.4.7-.7.7z"/></g><path id="XMLID_144_" class="st0" d="M42.4 7.3H21.8c-.4 0-.7-.3-.7-.7 0-.4.3-.7.7-.7h20.7c.4 0 .7.3.7.7-.1.4-.4.7-.8.7z"/></g><g id="XMLID_132_"><g id="XMLID_137_"><path id="XMLID_142_" class="st4" d="M27.3 40.5H41v12.2H27.3z"/><path id="XMLID_141_" class="st5" d="M27.3 40.5H41v4.3H27.3"/><g id="XMLID_138_"><path id="XMLID_140_" class="st1" d="M28.1 42.1h5.1v9.5h-5.1z"/><path id="XMLID_139_" class="st1" d="M35.1 42.1h5.1v9.5h-5.1z"/></g></g><path id="XMLID_136_" class="st0" d="M25.4 40h17.5v1H25.4z"/><path id="XMLID_133_" class="st1" d="M46.6 56.2v-1.9h-2v-1.8h-21v1.8h-2.2v1.9z"/></g></svg>