<svg xmlns="http://www.w3.org/2000/svg" xmlns:xlink="http://www.w3.org/1999/xlink" viewBox="0 0 48 48"><symbol id="e" viewBox="0 -48 48 48" fill="#FFFFFF"><path fill="none" d="M0-48h48V0H0z"></path></symbol><symbol id="f" viewBox="-0.0002 -48 48.0002 48.0002" fill="#FFFFFF"><defs fill="#FFFFFF"><path id="a" d="M0-48h48V0H0z" fill="#FFFFFF"></path></defs><clipPath id="b" fill="#FFFFFF"><use xlink:href="#a" overflow="visible" fill="#FFFFFF"></use></clipPath><g clip-path="url(#b)" fill="#FFFFFF"><g fill="none" stroke="#FFFFFF" stroke-width=".25" stroke-miterlimit="10"><path d="M2-48V0M4-48V0M6-48V0M8-48V0M10-48V0M12-48V0M14-48V0M16-48V0M18-48V0M20-48V0M22-48V0M24-48V0M26-48V0M28-48V0M30-48V0M32-48V0M34-48V0M36-48V0M38-48V0M40-48V0M42-48V0M44-48V0M46-48V0" fill="#FFFFFF"></path></g><g fill="none" stroke="#FFFFFF" stroke-width=".25" stroke-miterlimit="10"><path d="M0-2h48M0-4h48M0-6h48M0-8h48M0-10h48M0-12h48M0-14h48M0-16h48M0-18h48M0-20h48M0-22h48M0-24h48M0-26h48M0-28h48M0-30h48M0-32h48M0-34h48M0-36h48M0-38h48M0-40h48M0-42h48M0-44h48M0-46h48" fill="#FFFFFF"></path></g><path d="M47.75-.25v-47.5H.25v47.5h47.5M48 0H0v-48h48V0z" fill="#FFFFFF"></path></g></symbol><symbol id="g" viewBox="-0.0002 -48.0005 48.0002 48.0002" fill="#FFFFFF"><g opacity=".4" fill="#FFFFFF"><defs fill="#FFFFFF"><path id="c" opacity=".4" d="M0-48h48V0H0z" fill="#FFFFFF"></path></defs><clipPath id="d" fill="#FFFFFF"><use xlink:href="#c" overflow="visible" fill="#FFFFFF"></use></clipPath><path clip-path="url(#d)" fill="none" stroke="#FFFFFF" stroke-width=".25" stroke-miterlimit="10" d="M24 0v-48M48-24H0M48-16H0M48-32H0M32-48V0M16-48V0M47.75-.25L.25-47.75M.25-.25l47.5-47.5M24-14c-5.522 0-10-4.477-10-10s4.478-10 10-10c5.523 0 10 4.478 10 10 0 5.523-4.477 10-10 10z"></path><path d="M24-4C12.946-4 4-12.948 4-24c0-11.053 8.946-20 20-20 11.053 0 20 8.947 20 20 0 11.052-8.948 20-20 20z" clip-path="url(#d)" fill="none" stroke="#FFFFFF" stroke-width=".25" stroke-miterlimit="10"></path><path d="M40.5-42h-33c-.825 0-1.5.675-1.5 1.5v33C6-6.675 6.675-6 7.5-6h33c.825 0 1.5-.675 1.5-1.5v-33c0-.825-.675-1.5-1.5-1.5z" clip-path="url(#d)" fill="none" stroke="#FFFFFF" stroke-width=".25" stroke-miterlimit="10"></path><path d="M38.5-44h-29c-.825 0-1.5.675-1.5 1.5v37C8-4.675 8.675-4 9.5-4h29c.825 0 1.5-.675 1.5-1.5v-37c0-.825-.675-1.5-1.5-1.5z" clip-path="url(#d)" fill="none" stroke="#FFFFFF" stroke-width=".25" stroke-miterlimit="10"></path><g clip-path="url(#d)" fill="#FFFFFF"><path d="M47.75-.25v-47.5H.25v47.5h47.5M48 0H0v-48h48V0z" fill="#FFFFFF"></path></g><path d="M42.5-40h-37c-.825 0-1.5.675-1.5 1.5v29C4-8.675 4.675-8 5.5-8h37c.825 0 1.5-.675 1.5-1.5v-29c0-.825-.675-1.5-1.5-1.5z" clip-path="url(#d)" fill="none" stroke="#FFFFFF" stroke-width=".25" stroke-miterlimit="10"></path></g></symbol><path d="M25.886 15.5H43.5c.825 0 1.5-.675 1.5-1.5s-.675-1.5-1.5-1.5H25.886c.068.492.114.99.114 1.5s-.046 1.008-.114 1.5zM43.5 22.5H24.12c1.764.58 3.265 1.64 4.31 3H43.5c.825 0 1.5-.675 1.5-1.5s-.675-1.5-1.5-1.5zM43.5 32.5H30v3h13.5c.825 0 1.5-.675 1.5-1.5s-.675-1.5-1.5-1.5zM18 24c-.117 0-.23.012-.346.016-.05-.005-.1-.016-.154-.016h-5c-.053 0-.103.01-.154.016-.116-.004-.23-.016-.346-.016-4.628 0-8.436 3.107-8.94 7.1-.034.13-.06.26-.06.4v8c0 .828.672 1.5 1.5 1.5.83 0 1.5-.672 1.5-1.5V32c0-2.445 2.12-4.483 4.908-4.912.353-.055.716-.087 1.088-.087h6.007c.373 0 .736.033 1.09.088C21.88 27.518 24 29.555 24 32v7.5c0 .828.672 1.5 1.5 1.5s1.5-.672 1.5-1.5v-8c0-.14-.025-.27-.06-.4-.503-3.993-4.312-7.1-8.94-7.1zM15 22c4.418 0 8-3.58 8-8s-3.582-8-8-8-8 3.582-8 8 3.582 8 8 8zm0-13c2.757 0 5 2.243 5 5s-2.243 5-5 5-5-2.243-5-5 2.243-5 5-5z" fill="#FFFFFF"></path></svg>