<svg id="TYPO" xmlns="http://www.w3.org/2000/svg" viewBox="0 0 312 312"><style>.st0{fill:#0093E6;} .st1{fill:#F8B000;} .st2{fill:#84D0F0;} .st3{fill:#55241A;} .st4{fill:#00AAE6;} .st5{fill:#FFC92F;} .st6{fill:#F6861E;} .st7{fill:none;stroke:#FFFFFF;stroke-width:2.0369;stroke-miterlimit:10;} .st8{fill:none;stroke:#FFFFFF;stroke-width:2.0369;stroke-linecap:round;stroke-miterlimit:10;} .st9{fill:none;stroke:#FFFFFF;stroke-width:1.7085;stroke-miterlimit:10;} .st10{fill:#FFFFFF;} .st11{fill:#007BE6;} .st12{fill-rule:evenodd;clip-rule:evenodd;fill:#FFFFFF;}</style><g id="XMLID_70_"><path id="XMLID_71_" class="st0" d="M193.3 135.7h28.8c17 0 30.8-13.8 30.8-30.8V83.1H222v21.8h-28.8v30.8z"/></g><g id="XMLID_66_"><path id="XMLID_69_" class="st1" d="M129.2 194.4h-5.4V164h5.4c4.7 0 8.6 3.8 8.6 8.6v13.2c0 4.7-3.9 8.6-8.6 8.6z"/><g id="XMLID_67_"><path id="XMLID_68_" class="st2" d="M103.1 194.4h20.8V164h-13.2c-4.2 0-7.5-3.4-7.5-7.6v-12.8c0-4.6 3.7-8.3 8.3-8.3h19.1V105H103c-16.7 0-30.3 13.6-30.3 30.3v28.8c0 16.7 13.6 30.3 30.4 30.3z"/></g></g><g id="XMLID_64_"><path id="XMLID_65_" class="st3" d="M109.1 243.4h80.4c5.8 0 10.6-4.7 10.6-10.6v-95.7h-90.9v106.3z"/></g><path class="st3" d="M112.4 243.4H96.5c6.9 0 12.5-5.6 12.5-12.5h7.9v12.5h-4.5z"/><g id="XMLID_62_"><path id="XMLID_63_" class="st4" d="M103.1 194.3h20.8v-30.4h-13.2c-4.2 0-7.5-3.4-7.5-7.6v-12.8c0-4.6 3.7-8.3 8.3-8.3h19.1v-30.4H103c-16.7 0-30.3 13.6-30.3 30.3v28.8c0 16.8 13.6 30.4 30.4 30.4z"/></g><path id="XMLID_61_" class="st4" d="M102.9 125.3c0-11.3 9.2-20.5 20.5-20.5h69.7c11.3 0 20.5 9.2 20.5 20.5v15.9c0 7.8-4.4 14.9-11.4 18.3l-12.2 6c-7 3.4-11.4 10.6-11.4 18.3v4.1h-40.7v-4.1c0-7.8-4.4-14.9-11.4-18.3l-12.2-6c-7-3.4-11.4-10.6-11.4-18.3v-15.9z"/><path class="st5" d="M176.3 104.9l-.1-10.4h-32.7l-.1 10.4h-13.7v16h59v-16z"/><path id="XMLID_60_" class="st4" d="M163.7 191.1h14.6v72h-14.6z"/><path id="XMLID_59_" class="st6" d="M187.3 269.1h-23.5v-6h23.5c1.7 0 3 1.4 3 3 0 1.7-1.4 3-3 3z"/><path id="XMLID_58_" class="st6" d="M163.7 243.4h14.6v22.9h-14.6z"/><path id="XMLID_57_" class="st6" d="M152.5 205.7H164c8.1 0 14.6-6.5 14.6-14.6v-7.8h-40.7v7.8c0 8 6.5 14.6 14.6 14.6z"/><path class="st6" d="M137.8 185.8h21.5v19.9h-21.5z"/><g id="XMLID_49_"><path id="XMLID_56_" class="st6" d="M232.8 14.9v20.5h19.5c6.6 0 11.9 5.3 11.9 11.9v42.5h-50.6V14.9c0-5.3 4.3-9.6 9.6-9.6s9.6 4.3 9.6 9.6z"/><path id="XMLID_55_" class="st7" d="M217.6 15.3v70.4H260V47.3c0-4.3-3.5-7.8-7.8-7.8h-23.6V15.3c0-3-2.5-5.5-5.5-5.5s-5.5 2.5-5.5 5.5z"/><path id="XMLID_54_" class="st8" d="M231.7 63.9h12c3.2 0 5.7-2.6 5.7-5.7 0-3.2-2.6-5.7-5.7-5.7h-17.2c-4.9 0-9 4-9 9v5.4"/><path id="XMLID_53_" class="st9" d="M249.5 39.5V55c0 2.9 2.4 5.3 5.3 5.3s5.3-2.4 5.3-5.3v-5.3"/><path id="XMLID_52_" class="st7" d="M228.6 38.5v13"/><path id="XMLID_51_" class="st7" d="M238.8 39.5v13"/><path id="XMLID_50_" class="st7" d="M238.8 63.9v8.3"/></g><path class="st5" d="M183.5 106.4h-48.7V73.2h40.9c4.3 0 7.7 3.5 7.7 7.7v25.5z"/><path id="XMLID_48_" class="st5" d="M176.2 80.5V59.3c0-11.4-9.3-20.7-20.7-20.7-11.4 0-20.7 9.3-20.7 20.7v21.2c0 11.4 9.3 20.7 20.7 20.7 11.5 0 20.7-9.2 20.7-20.7z"/><path id="XMLID_47_" class="st10" d="M154.4 82c0 4.3 4.7 7.8 10.5 7.8s10.5-3.5 10.5-7.8h-21z"/><path id="XMLID_46_" class="st3" d="M171.9 54h-22.2c-5 0-9.1-4.1-9.1-9.1v-1.1c0-4.2 3.4-7.6 7.6-7.6h32v9.5c0 4.6-3.8 8.3-8.3 8.3z"/><path class="st3" d="M134.9 47.1v27.5c3.3 0 6.6-3.2 6.6-8.9V40.5c-3.7 0-6.6 3-6.6 6.6z"/><path id="XMLID_45_" class="st1" d="M137.8 181.9h40.9v3.9h-40.9z"/><path class="st6" d="M188.7 120.9l6.9-16h-6.9zM129.7 120.9l-15.9-16h15.9z"/><path id="XMLID_44_" class="st4" d="M152.4 263.1h-14.6v-64.7c0-4 3.3-7.3 7.3-7.3s7.3 3.3 7.3 7.3v64.7z"/><path id="XMLID_43_" class="st6" d="M128.9 269.1h23.5v-6h-23.5c-1.7 0-3 1.4-3 3-.1 1.7 1.3 3 3 3z"/><path id="XMLID_42_" class="st6" d="M137.8 243.4h14.6v22.9h-14.6z"/><path id="XMLID_41_" class="st5" d="M129.2 194.3h-11.9V164h11.9c4.7 0 8.6 3.8 8.6 8.6v13.2c0 4.7-3.9 8.5-8.6 8.5z"/><circle class="st5" cx="135.8" cy="76.8" r="4.9"/><path class="st1" d="M148.5 106.4c2.4 1.6 7 3.7 14.2 3.7 7.2 0 11.8-2.1 14.2-3.7h-28.4z"/><path class="st11" d="M222.1 89.7H253v3.7h-30.9z"/><path class="st2" d="M159.2 159.7c-6.3 0-14-4.2-16.4-12.4 0-.1-5.5-19.8-5.5-19.8h23.6c6.5 0 14.2 4.3 16.6 12.4 0 .2 5.5 19.7 5.5 19.7h-23.8z"/><path class="st3" d="M159.2 156.5c-5.2 0-11.4-3.5-13.4-10.1 0-.1-.1-.5-1-3.7-.9-3.4-2.3-8.2-3-10.9l-.3-1.2h19.4c5.3 0 11.6 3.5 13.6 10.1 0 0 .3.9 1.3 4.6 1.1 3.9 2.5 9 2.8 10l.3 1.2h-19.7z"/><path class="st12" d="M157.8 152.9h2.6v-11.1h3.1v-2h-3.1v-1.7c0-.8.3-1.1 1.1-1.1h1.9v-2.5h-2.1c-2 0-3.6 1.1-3.6 3.6v1.7h-3l.6 2h2.4v11.1z"/><path class="st5" d="M138.9 174H121v-10.2h17.9c2.3 0 4.2 1.9 4.2 4.2v1.7c.1 2.4-1.8 4.3-4.2 4.3zM138.4 184.1h-17.9V174h17.9c2.3 0 4.2 1.9 4.2 4.2v1.7c0 2.3-1.8 4.2-4.2 4.2zM137.4 194.3h-17.9v-10.2h17.9c2.3 0 4.2 1.9 4.2 4.2v1.7c0 2.4-1.9 4.3-4.2 4.3z"/><path class="st5" d="M123.8 151.4c-2.2 0-4 1.8-4 4v9.4h8v-9.4c0-2.2-1.8-4-4-4z"/><path class="st5" d="M117.3 164l3.2-3.2v4.1z"/></svg>